<svg width="175" height="45" viewBox="0 0 151 32" fill="none" xmlns="http://www.w3.org/2000/svg">
    <path
        d="M14.3522 18.6036L14.6158 18.6695C13.7095 23.7941 10.2492 25.3265 7.59626 25.3265C3.77341 25.3265 0 22.2616 0 16.445C0 10.859 3.29556 6.8549 7.82695 6.8549C10.6611 6.8549 14.6817 8.35438 14.6817 14.6819H5.09164C5.58597 18.4388 7.57978 20.3832 10.5458 20.3832C12.21 20.3667 13.4459 19.8724 14.3522 18.6036ZM4.95982 12.721C4.95982 13.0341 4.95982 13.3472 4.99277 13.6602H9.1287C9.1287 9.26066 8.43663 7.95891 7.10193 7.95891C5.71779 7.95891 4.95982 9.72204 4.95982 12.721ZM25.0957 24.6674V24.8322H15.5056V24.6674C16.4448 24.2719 17.1369 23.5304 17.1369 22.1792V5.61907C17.1369 4.35028 16.6755 3.52639 15.5056 3.13092V2.96614L23.4644 0.543905V22.1792C23.4644 23.5304 24.1729 24.2719 25.0957 24.6674ZM36.6796 24.6674V24.8322H27.0895V24.6674C28.0122 24.2719 28.7208 23.5304 28.7208 22.1792V11.963C28.7208 10.3647 28.2924 9.6726 27.0895 9.29361V9.12884L35.0483 6.87138V22.1792C35.0483 23.5304 35.7568 24.2719 36.6796 24.6674ZM28.4242 3.32865C28.4077 1.51609 29.8742 0.0166153 31.6868 0.000137511C33.4994 -0.0163403 34.9988 1.45018 35.0153 3.26274C35.0318 5.0753 33.5653 6.57478 31.7527 6.59126H31.7198C29.9237 6.60773 28.4407 5.15769 28.4242 3.36161V3.32865ZM49.4004 20.3996C48.6589 22.8548 46.6651 25.3265 43.2048 25.3265C40.041 25.3265 38.6404 23.2997 38.6404 20.5315V8.27199H37.0091V8.10721C39.5797 5.91567 42.2985 3.8889 44.9349 1.58201H44.9679V7.41514H48.0328V8.25551H44.9679V19.6417C44.9679 21.0752 45.5941 21.998 46.764 21.998C48.0657 21.998 48.7907 21.1247 49.0873 20.3008L49.4004 20.3996ZM64.5765 18.6036L64.8401 18.6695C63.9338 23.7941 60.4735 25.3265 57.8206 25.3265C53.9977 25.3265 50.2243 22.2616 50.2243 16.445C50.2243 10.859 53.5199 6.8549 58.0513 6.8549C60.8854 6.8549 64.906 8.35438 64.906 14.6819H55.3324C55.8268 18.4388 57.8206 20.3832 60.7866 20.3832C62.4508 20.3667 63.6867 19.8724 64.5765 18.6036ZM55.1841 12.721C55.1841 13.0341 55.1841 13.3472 55.2171 13.6602H59.3365C59.3365 9.26066 58.6445 7.95891 57.3098 7.95891C55.9586 7.95891 55.2006 9.72204 55.1841 12.721ZM91.254 24.6674V24.8322H83.2952V21.8662C82.6691 23.7611 81.1696 25.3265 78.665 25.3265C74.974 25.3265 72.733 21.7673 72.733 16.7416C72.733 10.9579 76.1933 6.8549 80.8565 6.8549C82.0265 6.8549 82.7515 7.11854 83.2788 7.51401V5.60259C83.2788 4.36675 82.5373 3.41104 80.8071 3.41104V3.24626L89.6062 0.543905V22.1792C89.6227 23.86 90.3148 24.2719 91.254 24.6674ZM83.2952 21.3059V8.32142C83.0316 8.05778 82.735 7.99187 82.3231 7.99187C80.5599 7.99187 79.5548 11.0567 79.5548 15.0444C79.5548 19.5428 80.7577 21.998 82.0924 21.998C82.7515 21.998 83.0975 21.7014 83.2952 21.3059ZM111.093 24.6674V24.8322H103.135V22.031C102.508 23.9589 100.399 25.3265 98.1417 25.3265C94.7473 25.3265 92.5887 22.2946 92.5887 17.5984C92.5887 11.0403 96.6587 6.8549 103.036 6.8549C105.507 6.8549 107.699 7.31628 109.462 8.1896V22.1628C109.462 23.5304 109.857 24.1236 111.093 24.6674ZM103.135 21.4707V7.99187C102.904 7.86005 102.64 7.81061 102.36 7.82709C100.63 7.82709 99.3941 10.6283 99.3941 14.55C99.3941 19.1144 100.432 21.998 102.031 21.998C102.558 21.998 102.937 21.8332 103.135 21.4707ZM122.002 24.6674V24.8322H112.412V24.6674C113.351 24.2719 114.043 23.5304 114.043 22.1792V11.963C114.043 10.3647 113.614 9.6726 112.412 9.29361V9.12884L120.37 6.87138V22.1792C120.37 23.5304 121.079 24.2719 122.002 24.6674ZM113.746 3.32865C113.73 1.51609 115.196 0.0166153 117.009 0.000137511C118.821 -0.0163403 120.321 1.45018 120.337 3.26274C120.354 5.0753 118.887 6.57478 117.075 6.59126H117.042C115.246 6.60773 113.763 5.17417 113.746 3.36161V3.32865ZM132.762 24.6674V24.8322H123.172V24.6674C124.111 24.2719 124.803 23.5304 124.803 22.1792V5.61907C124.803 4.35028 124.341 3.52639 123.172 3.13092V2.96614L131.13 0.543905V22.1792C131.13 23.5304 131.822 24.2719 132.762 24.6674Z"
        fill="white"></path>
    <path
        d="M131.592 30.8629L133.454 25.7713H133.619C134.657 26.7764 136.585 27.2708 137.689 27.2708C139.748 27.2708 141.017 26.8424 141.759 25.7713L141.89 25.5736L135.019 10.1174C134.393 8.71678 133.586 7.79402 132.828 7.5139V7.34912H142.945V7.5139C141.973 7.84345 141.544 8.27188 141.544 9.01338C141.544 9.55715 141.643 10.0844 141.841 10.5788L144.51 17.4994L147.114 10.9742C147.345 10.4634 147.46 9.90318 147.476 9.34293C147.476 8.37074 146.949 7.74459 145.911 7.5139V7.34912H150.904V7.5139C149.833 7.87641 149.272 8.74973 148.58 10.5129L142.55 26.0349C140.753 30.6982 138.512 31.9999 135.53 31.9999C134.558 31.9834 132.894 31.7198 131.592 30.8629Z"
        fill="white"></path>
</svg>