<svg width="175" height="45" xmlns="http://www.w3.org/2000/svg" viewBox="0 0 293.83 95">
    <defs>
        <style>
            .cls-1 {
                fill: #fff;
            }
        </style>
    </defs>
    <title>Asset 2</title>
    <g id="Layer_2" data-name="Layer 2">
        <g id="Layer_1-2" data-name="Layer 1">
            <path class="cls-1"
                d="M62.66.67,69,.65c0,7.61.08,15.23-.05,22.84,0,4.91-2.13,10.15-6.63,12.58a17.82,17.82,0,0,1-16.53-.24c-4.25-2.48-6.3-7.59-6.2-12.36,0-7.6,0-15.21,0-22.81h6.19c0,6.58,0,13.16,0,19.74.1,3,.11,6.31,1.93,8.9,2.44,3.36,7.57,3.68,11,1.79,3.12-1.88,3.79-5.81,3.85-9.16C62.69,14.85,62.65,7.75,62.66.67Z">
            </path>
            <path class="cls-1"
                d="M90.28.81A20.48,20.48,0,0,1,106.39,3c0,2.23,0,4.45,0,6.67-4-3-9.33-5.18-14.31-3.44a4,4,0,0,0-2.52,5.32c.85,2,3.16,2.57,5,3.31,3.94,1.57,8.49,2.42,11.42,5.75,3.76,4.54,2.8,12.63-2.7,15.39-6.2,3.21-13.94,2.19-19.89-1.15,0-2.29,0-4.58,0-6.87C87.81,31.46,94,33.5,99.49,31.4c3-1.08,3.36-5.72.65-7.33-4.2-2.55-9.36-3.06-13.39-5.95-3.54-2.55-4.58-7.6-3.11-11.57A10,10,0,0,1,90.28.81Z">
            </path>
            <path class="cls-1"
                d="M147.8.11c8.43,7.74,16.63,15.74,24.91,23.64V.66h6.18q0,18.67,0,37.35c-8.44-8-16.65-16.27-25.14-24.24,0,7.82,0,15.62,0,23.43l-6,0c0-12.37-.06-24.74,0-37.11Z">
            </path>
            <path class="cls-1"
                d="M195.15.65c7.46,0,14.92,0,22.38,0,0,1.88,0,3.76,0,5.64-5.35,0-10.69,0-16,0V15c4.78,0,9.54,0,14.31,0v5.6c-4.77,0-9.53,0-14.31,0,0,3.67,0,7.36,0,11,5.34,0,10.68,0,16,0,0,1.93,0,3.87,0,5.81H195.14c0-12.26,0-24.5,0-36.76Z">
            </path>
            <path class="cls-1"
                d="M235.71,2.09c5.8-3.36,13.21-2.33,18.9.77.11,2.27.11,4.55.1,6.83C250.58,6.59,245,4.38,240,6.41a3.91,3.91,0,0,0-.6,6.87c4.26,2.44,9.47,2.94,13.45,5.94,5.36,4,5,13.65-1.16,16.74-6.19,3.25-14,2.29-19.94-1.15,0-2.26,0-4.51,0-6.77,4.32,3.08,9.81,5.18,15.13,3.74,2-.49,3.77-2.26,3.49-4.42a4.25,4.25,0,0,0-2.57-3.79c-4.18-2.17-9.11-2.78-12.9-5.71-4.94-3.82-4.62-12.6.9-15.77Z">
            </path>
            <path class="cls-1"
                d="M272.84,2.21c5.75-3.48,13.29-2.54,19,.64,0,2.25,0,4.49,0,6.74-4.09-3.09-9.67-5.19-14.68-3.14a3.93,3.93,0,0,0-.56,6.83c4.37,2.53,9.8,2.94,13.79,6.18,3.43,2.71,4.12,7.73,2.79,11.69-1.24,3.52-4.79,5.57-8.28,6.33a23.06,23.06,0,0,1-15.83-2.56C269,32.62,269,30.33,269,28c4.51,3.34,10.64,5.48,16.11,3.37a4.22,4.22,0,0,0,.75-7.3c-4.32-2.7-9.76-3.09-13.82-6.29-4.76-3.82-4.54-12.37.81-15.6Z">
            </path>
            <path class="cls-1"
                d="M0,.66C6.49,1,13.22-.3,19.5,1.75c7,2.24,8,13.14,1.6,16.68,5.79,2.4,7.12,10.61,3.15,15.16-2.45,2.91-6.44,3.68-10,3.79-4.74.08-9.46,0-14.2,0V.66M6.2,6.28q0,4.81,0,9.65c3.33-.16,6.78.46,10-.47,3.92-1.14,3.95-7.6.05-8.77C13,5.85,9.55,6.42,6.2,6.28m0,15.07c0,3.48,0,7,0,10.44,3.81-.27,7.92.75,11.53-.85,3.59-1.75,3.26-7.71-.49-9C13.68,20.78,9.87,21.59,6.2,21.35Z">
            </path>
            <path class="cls-1" d="M124,.66h6.19V37.41H124Z"></path>
            <path class="cls-1"
                d="M98.61,57.71c5.78-3.66,13.49-2.64,19.19.66,0,2.21,0,4.42,0,6.64-4.18-3.06-9.92-5.42-14.94-3.07a3.86,3.86,0,0,0-.58,6.47c4.58,2.91,10.67,3,14.62,7,2.65,2.5,3.09,6.49,2.41,9.89a10,10,0,0,1-7,6.91A22.1,22.1,0,0,1,95,90.05c0-2.27,0-4.54,0-6.8,4.35,3.27,10.27,5.42,15.62,3.5,3.24-.86,3.88-5.83,1-7.46-4.32-2.69-9.82-3-13.8-6.38-4.51-3.81-4.21-12,.89-15.2Z">
            </path>
            <path class="cls-1" d="M24.56,56.16h6.19q0,18.18,0,36.36H24.56Z"></path>
            <path class="cls-1"
                d="M48.34,55.31c8.24,7.86,16.44,15.75,24.75,23.54,0-7.63,0-15.25,0-22.87H79.3c0,12.4,0,24.79,0,37.2-8.39-8-16.62-16.1-25-24.13,0,7.83,0,15.65,0,23.48h-6c0-12.41,0-24.81,0-37.21Z">
            </path>
            <path class="cls-1" d="M135.38,56.16h6.19V92.52h-6.19Q135.38,74.34,135.38,56.16Z"></path>
            <path class="cls-1"
                d="M159.37,56.16h15c5.67-.07,11.53,2.83,14.3,7.9,3,5.32,3.17,11.93,1.31,17.67a16.16,16.16,0,0,1-14.15,10.69c-5.47.28-10.95,0-16.43.11q0-18.18,0-36.36m6.37,5.61V86.91c4.44-.17,9.21.68,13.33-1.4,4-2,5.78-6.68,5.67-11,.16-4.32-1.37-9.16-5.34-11.37-4.17-2.33-9.12-1.12-13.66-1.42Z">
            </path>
            <path class="cls-1"
                d="M203.84,56.16h22.24v5.62H210v8.49h14.31V75.7c-4.77,0-9.54,0-14.31,0v11.2c5.35,0,10.7,0,16.05,0v5.61q-11.13,0-22.24,0V56.16Z">
            </path>
            <path class="cls-1"
                d="M244.27,56.16c5,0,10,0,15,0,4.26.11,8.77,2.56,10,6.86,1.1,3.74.83,8.17-1.56,11.36-1.48,1.91-3.86,2.63-6.08,3.24q6.51,7.38,12.94,14.84c-2.45.05-4.88.05-7.32,0-4.15-4.93-8.37-9.79-12.54-14.68h-4.11q0,7.35,0,14.7h-6.38q0-18.18,0-36.36m6.38,5.43c0,3.6,0,7.21,0,10.81,3.31-.18,6.76.52,10-.51,3.95-1.58,4-7.93.15-9.62C257.54,61,254,61.76,250.65,61.59Z">
            </path>
        </g>
    </g>
</svg>