<svg width="175" height="50" xmlns="http://www.w3.org/2000/svg" viewBox="0 0 940.9 274">
    <defs>
        <style>
            .cls-1 {
                fill: #fff;
            }
        </style>
    </defs>
    <title>Asset 1</title>
    <g id="Layer_2" data-name="Layer 2">
        <g id="Layer_1-2" data-name="Layer 1">
            <path class="cls-1"
                d="M323.08,111.46a1.46,1.46,0,0,1,1.46-1.46h17.67c9.18,0,16.28,6.17,16.28,14.27,0,5.94-4.86,10.57-8.49,12.27,4.09,1.31,10,5.47,10,12.57,0,8.64-7.4,14.89-16.82,14.89H324.54a1.46,1.46,0,0,1-1.46-1.46Zm18.21,21.22a6.61,6.61,0,0,0,6.63-6.94,6.3,6.3,0,0,0-6.63-6.56H333v13.5Zm1.08,22.22a6.89,6.89,0,0,0,6.94-7c0-3.86-3.86-6.71-7.87-6.71H333V154.9Z">
            </path>
            <path class="cls-1"
                d="M383.87,111.46a1.45,1.45,0,0,1,1.46-1.46H407.4a16.7,16.7,0,0,1,16.81,16.58c0,7.1-4.7,12.89-11.41,15.59l10.57,19.59a1.46,1.46,0,0,1-1.32,2.24H414a1.31,1.31,0,0,1-1.23-.69l-10.26-20.45h-8.57v19.68a1.51,1.51,0,0,1-1.46,1.46h-7.1a1.45,1.45,0,0,1-1.46-1.46Zm22.68,23.15a7.85,7.85,0,0,0,7.63-7.87,7.66,7.66,0,0,0-7.63-7.48H394v15.35Z">
            </path>
            <path class="cls-1"
                d="M448.43,111.46A1.52,1.52,0,0,1,449.9,110h7.17a1.52,1.52,0,0,1,1.47,1.46v51.08a1.52,1.52,0,0,1-1.47,1.46H449.9a1.52,1.52,0,0,1-1.47-1.46Z">
            </path>
            <path class="cls-1"
                d="M485.77,111.46a1.44,1.44,0,0,1,1.39-1.46h18.28a27,27,0,1,1,0,54H487.16a1.44,1.44,0,0,1-1.39-1.46Zm18.74,43.13c10,0,17.36-7.56,17.36-17.67s-7.33-17.59-17.36-17.59h-8.79v35.26Z">
            </path>
            <path class="cls-1"
                d="M548.41,162l24-51.92a1.38,1.38,0,0,1,1.31-.85h.77a1.3,1.3,0,0,1,1.31.85L599.56,162a1.36,1.36,0,0,1-1.32,2h-6.71a2.22,2.22,0,0,1-2.24-1.54l-3.78-8.33H562.45l-3.78,8.33a2.33,2.33,0,0,1-2.24,1.54h-6.71A1.36,1.36,0,0,1,548.41,162Zm33.32-16.44-7.71-17h-.23l-7.56,17Z">
            </path>
            <path class="cls-1"
                d="M619.76,111.46a1.46,1.46,0,0,1,1.47-1.46h7.1a1.51,1.51,0,0,1,1.46,1.46v43.28h19.67a1.47,1.47,0,0,1,1.47,1.47v6.33a1.46,1.46,0,0,1-1.47,1.46H621.23a1.46,1.46,0,0,1-1.47-1.46Z">
            </path>
            <path class="cls-1"
                d="M671.91,111.46a1.46,1.46,0,0,1,1.47-1.46h18.13a17.21,17.21,0,1,1,.07,34.41h-9.64v18.13a1.52,1.52,0,0,1-1.47,1.46h-7.09a1.46,1.46,0,0,1-1.47-1.46Zm19,23.53a7.94,7.94,0,0,0,7.94-8,7.69,7.69,0,0,0-7.94-7.48h-8.95V135Z">
            </path>
            <path class="cls-1"
                d="M730,111.46a1.51,1.51,0,0,1,1.46-1.46h7.33a1.46,1.46,0,0,1,1.47,1.46V143c0,6.56,4.47,11.72,11.18,11.72s11.27-5.16,11.27-11.65V111.46a1.46,1.46,0,0,1,1.46-1.46h7.33a1.52,1.52,0,0,1,1.47,1.46v32.1a21.49,21.49,0,0,1-43,0Z">
            </path>
            <path class="cls-1"
                d="M799.42,111.46a1.46,1.46,0,0,1,1.47-1.46H808a1.51,1.51,0,0,1,1.46,1.46v43.28h19.68a1.46,1.46,0,0,1,1.46,1.47v6.33a1.45,1.45,0,0,1-1.46,1.46H800.89a1.46,1.46,0,0,1-1.47-1.46Z">
            </path>
            <path class="cls-1"
                d="M848.41,156.44l2.78-4.78a1.78,1.78,0,0,1,2.62-.54c.38.23,6.63,4.78,11.65,4.78,4,0,7-2.62,7-5.94,0-3.93-3.32-6.63-9.8-9.26-7.25-2.93-14.5-7.56-14.5-16.66,0-6.87,5.09-14.81,17.36-14.81A27.19,27.19,0,0,1,881,114.4a1.9,1.9,0,0,1,.46,2.54l-2.93,4.4c-.62.92-1.78,1.54-2.7.92-.62-.38-6.48-4.24-10.73-4.24s-6.79,2.93-6.79,5.4c0,3.63,2.86,6.1,9.11,8.64,7.48,3,16.12,7.49,16.12,17.44,0,7.94-6.86,15.27-17.74,15.27-9.72,0-15.43-4.55-17-6C848.1,158.06,847.71,157.68,848.41,156.44Z">
            </path>
            <path class="cls-1"
                d="M906.57,111.46A1.46,1.46,0,0,1,908,110h31.4a1.45,1.45,0,0,1,1.46,1.46v6.33a1.46,1.46,0,0,1-1.46,1.47H916.6v12.65h19.06a1.51,1.51,0,0,1,1.46,1.46v6.41a1.45,1.45,0,0,1-1.46,1.46H916.6v13.5h22.84a1.46,1.46,0,0,1,1.46,1.47v6.33a1.45,1.45,0,0,1-1.46,1.46H908a1.46,1.46,0,0,1-1.47-1.46Z">
            </path>
            <path class="cls-1"
                d="M137,0A137,137,0,1,0,274,137,137,137,0,0,0,137,0Zm25,189H137v20H127V189H91V115a35,35,0,0,1,69.07-8H149.68A25,25,0,0,0,101,115v64h26V119h35a35,35,0,0,1,0,70Z">
            </path>
            <path class="cls-1" d="M162,129H137v50h25a25,25,0,0,0,0-50Z"></path>
        </g>
    </g>
</svg>