<svg width="175" height="45" viewBox="0 0 165 32" fill="none" xmlns="http://www.w3.org/2000/svg">
    <path
        d="M22.4126 9.78307C21.5248 9.78307 20.7409 10.0229 20.0806 10.4458C19.3288 7.8418 17.0562 6.36792 13.6089 6.36792H8.16097V8.26467H13.7597C16.6185 8.26467 18.305 9.81522 18.305 12.5231C18.305 15.231 16.6185 16.7815 13.7597 16.7815H13.7152L14.0318 16.3141C14.7242 15.2755 15.3573 14.2517 15.3573 13.2897C15.3573 11.3039 14.0936 9.7979 11.6256 9.7979C9.48894 9.7979 7.87658 11.4375 7.87658 13.3664H9.90935C9.90935 12.4019 10.5424 11.6947 11.6256 11.6947C12.7854 11.6947 13.327 12.3722 13.327 13.3515C13.327 14.1033 12.8447 14.8576 12.318 15.6242L11.5044 16.7988H8.16344V18.6956H10.211L6.64258 23.9185H15.1916V22.0069H10.1492L12.4219 18.6807H13.6114C13.8067 18.6807 14.0021 18.6807 14.1974 18.6659L20.1721 26.4631H22.7464L20.7755 23.9036L24.5245 18.4236C25.4889 17.0684 26.6166 15.5945 26.6166 13.8931C26.5968 11.6501 24.8806 9.78307 22.4126 9.78307ZM19.5069 22.2764L16.4206 18.2875C17.5483 17.9265 18.4682 17.3231 19.131 16.4971C19.8679 17.4294 21.0277 18.018 22.4274 18.018C22.4423 18.018 22.5189 18.018 22.5338 18.018L19.5069 22.2764ZM22.4126 16.1361C21.1192 16.1361 20.276 15.1568 20.276 13.908C20.276 13.8016 20.276 13.7126 20.2908 13.6063C20.2908 13.5914 20.2908 13.5766 20.2908 13.5469C20.4417 12.4786 21.2379 11.6798 22.3978 11.6798C23.6911 11.6798 24.5344 12.6591 24.5344 13.908C24.5492 15.1568 23.7059 16.1361 22.4126 16.1361Z"
        fill="white"></path>
    <path
        d="M16 0C7.17898 0 0 7.17898 0 16C0 24.821 7.17898 32 16 32C24.821 32 32 24.821 32 15.9852C32 7.16414 24.821 0 16 0ZM16 30.1032C8.21762 30.1032 1.89676 23.7824 1.89676 16C1.89676 8.21762 8.21762 1.89675 16 1.89675C23.7824 1.89675 30.1032 8.21762 30.1032 16C30.1032 23.7675 23.7824 30.1032 16 30.1032Z"
        fill="white"></path>
    <path
        d="M51.123 15.9037C51.8946 15.1791 52.3867 14.1479 52.3867 13.0004C52.3867 11.853 51.8946 10.8242 51.123 10.0972C50.4207 9.44185 49.4834 9.0437 48.0318 9.0437H42.8584V23.231H45.5984V16.9571H46.5827L51.6399 23.231H55.0105L49.6961 16.7222C50.2797 16.5367 50.7471 16.2548 51.123 15.9037ZM49.2485 14.1034C49.0136 14.3605 48.6624 14.5238 47.8661 14.5238H45.596V11.4796H47.8661C48.6624 11.4796 49.0136 11.6675 49.2485 11.9247C49.4834 12.1819 49.6467 12.6048 49.6467 13.0252C49.6467 13.4233 49.4834 13.8214 49.2485 14.1034Z"
        fill="white"></path>
    <path
        d="M59.6199 16.8409H63.9748V14.4075H59.6199V11.4795H65.3794V9.04614H56.8799V23.231H65.5896V20.7976H59.6199V16.8409Z"
        fill="white"></path>
    <path d="M69.1709 23.231H71.9109V16.8409H76.2633V14.4075H71.9109V11.4795H77.668V9.04614H69.1709V23.231Z"
        fill="white"></path>
    <path d="M83.2889 9.04614H80.5488V23.2335H83.2889V9.04614Z" fill="white"></path>
    <path
        d="M97.0287 18.2925L89.1153 9.04614H87.1963V23.231H89.9363V13.9846L97.8473 23.231H99.7688V9.04614H97.0287V18.2925Z"
        fill="white"></path>
    <path
        d="M106.673 16.8409H111.028V14.4075H106.673V11.4795H112.433V9.04614H103.936V23.231H112.643V20.7976H106.673V16.8409Z"
        fill="white"></path>
    <path
        d="M124.488 15.9037C125.26 15.1791 125.752 14.1479 125.752 13.0004C125.752 11.853 125.26 10.8242 124.488 10.0972C123.786 9.44185 122.849 9.0437 121.397 9.0437H116.224V23.231H118.964V16.9571H119.948L124.98 23.231H128.376L123.061 16.7222C123.645 16.5367 124.09 16.2548 124.488 15.9037ZM122.591 14.1034C122.357 14.3605 122.005 14.5238 121.209 14.5238H118.939V11.4796H121.209C122.005 11.4796 122.357 11.6675 122.591 11.9247C122.826 12.1819 122.99 12.6048 122.99 13.0252C123.014 13.4233 122.849 13.8214 122.591 14.1034Z"
        fill="white"></path>
    <path
        d="M134.063 14.0316L130.925 9.04614H127.812L132.681 16.8186V23.231H135.421V16.8186L140.265 9.04614H137.152L134.063 14.0316Z"
        fill="white"></path>
    <path
        d="M149.653 17.1697C150.637 15.8813 151.199 14.7808 151.199 13.0251C151.199 10.426 148.998 8.55396 146.564 8.55396H146.47C144.037 8.55396 141.999 10.3567 141.836 12.9781H144.576C144.576 11.9716 145.466 11.0343 146.52 11.0343C147.596 11.0343 148.464 11.9716 148.464 12.9781C148.464 13.7274 148.37 14.4989 147.341 15.8096L141.255 23.2309H151.718V20.7506H146.685L149.653 17.1697Z"
        fill="white"></path>
    <path
        d="M158.808 8.55396C156.046 8.55396 153.775 10.8241 153.775 13.6334C153.775 16.5366 156.046 18.6189 158.739 18.6189H158.927L156.234 23.2309H159.253L162.601 17.4962C163.351 16.2077 164.006 14.9441 164.006 13.5172C164.004 10.473 161.451 8.55396 158.808 8.55396ZM158.877 16.1632C157.472 16.1632 156.325 15.0158 156.325 13.6111C156.325 12.2065 157.472 11.0591 158.877 11.0591C160.282 11.0591 161.429 12.2065 161.429 13.6111C161.429 15.0158 160.282 16.1632 158.877 16.1632Z"
        fill="white"></path>
</svg>