<?xml version="1.0"?>
<svg xmlns="http://www.w3.org/2000/svg" xmlns:xlink="http://www.w3.org/1999/xlink" xmlns:svgjs="http://svgjs.com/svgjs" version="1.1" width="512" height="512" x="0" y="0" viewBox="0 0 481.28 481.28" style="enable-background:new 0 0 512 512" xml:space="preserve"><g>
<g xmlns="http://www.w3.org/2000/svg">
	<g>
		<path d="M424.64,161.28h-40v-24c0-22.091-17.909-40-40-40h-8c-4.418,0-8,3.582-8,8v56h-272c-4.418,0-8,3.582-8,8v304    c0,4.418,3.582,8,8,8h368c4.418,0,8-3.582,8-8v-304C432.64,164.862,429.058,161.28,424.64,161.28z M344.64,113.28    c13.255,0,24,10.745,24,24v144c-6.924-5.193-15.345-8-24-8V113.28z M280.64,218.16c21.292,21.765,21.292,56.555,0,78.32V218.16z     M280.64,317.04c32.982-22.212,41.714-66.956,19.502-99.938c-5.183-7.696-11.805-14.318-19.502-19.502v-20.32h48v104    c0,4.418,3.582,8,8,8h8c13.255,0,24,10.745,24,24s-10.745,24-24,24h-64V317.04z M64.64,177.28h31.2    c-3.205,15.714-15.486,27.995-31.2,31.2V177.28z M64.64,298.08c18.627,3.802,32.004,20.189,32,39.2h-32V298.08z M200.64,465.28    h-136v-16h136V465.28z M200.64,433.28h-136v-16h136V433.28z M200.64,401.28h-136v-16h136V401.28z M200.64,369.28h-136v-16h136    V369.28z M200.64,296.4c-21.24-21.756-21.24-56.484,0-78.24V296.4z M200.64,197.6c-32.96,22.245-41.647,66.997-19.402,99.958    c5.164,7.651,11.751,14.238,19.402,19.402v20.32h-88c-0.033-27.813-20.473-51.387-48-55.36v-57.28    c24.528-3.566,43.794-22.832,47.36-47.36h88.64V197.6z M264.64,337.28v128h-48v-288h48V337.28z M416.64,465.28h-136v-16h136    V465.28z M416.64,433.28h-136v-16h136V433.28z M416.64,401.28h-136v-16h136V401.28z M416.64,369.28h-136v-16h136V369.28z     M416.64,337.28h-40c5.235-6.902,8.047-15.338,8-24v-136h32V337.28z" fill="#ffffff" data-original="#000000" style=""/>
	</g>
</g>
<g xmlns="http://www.w3.org/2000/svg">
	<g>
		<path d="M249.92,33.28C236.988,31.062,226.858,20.932,224.64,8c0-4.418-3.582-8-8-8s-8,3.582-8,8    c-2.218,12.932-12.348,23.062-25.28,25.28c-4.418,0-8,3.582-8,8s3.582,8,8,8c12.932,2.218,23.062,12.348,25.28,25.28    c0,4.418,3.582,8,8,8s8-3.582,8-8c2.218-12.932,12.348-23.062,25.28-25.28c4.418,0,8-3.582,8-8S254.338,33.28,249.92,33.28z     M216.64,52.72c-3.104-4.463-6.977-8.336-11.44-11.44c4.463-3.104,8.336-6.977,11.44-11.44c3.104,4.463,6.977,8.336,11.44,11.44    C223.617,44.384,219.744,48.257,216.64,52.72z" fill="#ffffff" data-original="#000000" style=""/>
	</g>
</g>
<g xmlns="http://www.w3.org/2000/svg">
	<g>
		<polygon points="104.64,97.28 104.64,73.28 88.64,73.28 88.64,97.28 64.64,97.28 64.64,113.28 88.64,113.28 88.64,137.28     104.64,137.28 104.64,113.28 128.64,113.28 128.64,97.28   " fill="#ffffff" data-original="#000000" style=""/>
	</g>
</g>
<g xmlns="http://www.w3.org/2000/svg">
	<g>
		<polygon points="408.64,65.28 408.64,41.28 392.64,41.28 392.64,65.28 368.64,65.28 368.64,81.28 392.64,81.28 392.64,105.28     408.64,105.28 408.64,81.28 432.64,81.28 432.64,65.28   " fill="#ffffff" data-original="#000000" style=""/>
	</g>
</g>
<g xmlns="http://www.w3.org/2000/svg">
	<g>
		<rect x="112.64" y="249.28" width="32" height="16" fill="#ffffff" data-original="#000000" style=""/>
	</g>
</g>
<g xmlns="http://www.w3.org/2000/svg">
</g>
<g xmlns="http://www.w3.org/2000/svg">
</g>
<g xmlns="http://www.w3.org/2000/svg">
</g>
<g xmlns="http://www.w3.org/2000/svg">
</g>
<g xmlns="http://www.w3.org/2000/svg">
</g>
<g xmlns="http://www.w3.org/2000/svg">
</g>
<g xmlns="http://www.w3.org/2000/svg">
</g>
<g xmlns="http://www.w3.org/2000/svg">
</g>
<g xmlns="http://www.w3.org/2000/svg">
</g>
<g xmlns="http://www.w3.org/2000/svg">
</g>
<g xmlns="http://www.w3.org/2000/svg">
</g>
<g xmlns="http://www.w3.org/2000/svg">
</g>
<g xmlns="http://www.w3.org/2000/svg">
</g>
<g xmlns="http://www.w3.org/2000/svg">
</g>
<g xmlns="http://www.w3.org/2000/svg">
</g>
</g></svg>
